# xmcd
#
# Track frame offsets:
#	150
#	25928
#	48259
#	70081
#	91189
#	112164
#	131672
#	150881
#	172016
#	194328
#	216026
#
# Disc length: 3169 seconds
#
# Revision: 1
# Processed by: cddbd v1.5.2PL0 Copyright (c) Steve Scherf et al.
# Submitted via: audiograbber 1.83.01
#
DISCID=900c5f0b
DTITLE=Metallspürhunde - Moloch - Bonus CD: Remix Collection
DYEAR=2011
DGENRE=Darkwave
TTITLE0=Blut and Spiele (Remix by Kadaver Acht)
TTITLE1=Blut and Spiele (Zerberus Remix by Noktis)
TTITLE2=Obszöne Neue Welt (Remix by Unmensch)
TTITLE3=Obszöne Neue Welt (Remix by Cyber S[?]ain't))
TTITLE4=Obszöne Neue Welt (Remix by Irrlicht)
TTITLE5=Mach es wieder gut (Remix by Unmensch)
TTITLE6=Wo gehst du hin? (Shizophobia's Power Cut Remix)
TTITLE7=Ou Iras-Tu? (Remix by Kissin' Black)
TTITLE8=Heuchler (Remix by Vhelena Projekt)
TTITLE9=In deinem Bann (Remix by Soul in Sadness)
TTITLE10=In deinem Bann (Remix by O.S.C.)
EXTD=
EXTT0=
EXTT1=
EXTT2=
EXTT3=
EXTT4=
EXTT5=
EXTT6=
EXTT7=
EXTT8=
EXTT9=
EXTT10=
PLAYORDER=
